<?xml version="1.0" encoding="UTF-8" standalone="no"?>
<!DOCTYPE svg PUBLIC "-//W3C//DTD SVG 1.1//EN" "http://www.w3.org/Graphics/SVG/1.1/DTD/svg11.dtd">
<svg width="100%" height="100%" viewBox="0 0 240 240" version="1.1" xmlns="http://www.w3.org/2000/svg" xmlns:xlink="http://www.w3.org/1999/xlink" xml:space="preserve" xmlns:serif="http://www.serif.com/" style="fill-rule:evenodd;clip-rule:evenodd;stroke-linecap:round;stroke-linejoin:round;stroke-miterlimit:1.5;">
    <g transform="matrix(0.869448,0,0,0.869448,-773.061,-1029.79)">
        <circle cx="1027.21" cy="1322.45" r="135.375" style="stroke:white;stroke-width:3.07px;"/>
    </g>
    <g transform="matrix(0.869448,0,0,0.872882,-773.061,-1042.47)">
        <path d="M944.569,1422.72L961.008,1406.62C961.146,1406.76 961.354,1406.99 961.631,1407.32C961.907,1407.64 962.115,1407.88 962.253,1408.02C963.8,1409.58 965.521,1410.49 967.416,1410.72C969.311,1410.96 971.103,1410.38 972.79,1409.01L972.412,1408.28C970.406,1408.82 968.56,1408.23 966.875,1406.53C965.697,1405.33 964.177,1403.37 962.314,1400.64C961.395,1399.25 960.561,1398.06 959.812,1397.09C959.063,1396.13 958.389,1395.34 957.789,1394.73C955.48,1392.39 952.954,1391.09 950.209,1390.81C947.465,1390.53 944.654,1391.25 941.777,1392.96L942.084,1393.77C946.381,1392.13 950.007,1392.81 952.961,1395.8L953.342,1396.19C953.434,1396.33 953.55,1396.47 953.688,1396.61C953.78,1396.75 953.884,1396.89 953.999,1397.03C954.114,1397.17 954.229,1397.3 954.345,1397.41C947.047,1396.06 941.368,1397.37 937.308,1401.35C934.351,1404.24 932.903,1407.68 932.963,1411.67C933.07,1415.66 934.566,1419.12 937.452,1422.04C939.991,1424.61 943.063,1426.18 946.666,1426.74C950.27,1427.26 953.627,1426.59 956.739,1424.74L956.29,1424.07C951.857,1425.29 947.95,1424.84 944.569,1422.72ZM960.387,1405.71L943.631,1422.12C943.539,1422.08 943.458,1422.02 943.388,1421.95C943.319,1421.88 943.25,1421.83 943.18,1421.81C943.041,1421.71 942.897,1421.6 942.746,1421.47C942.596,1421.35 942.452,1421.21 942.313,1421.07L941.898,1420.65C940.166,1418.9 939.032,1416.72 938.495,1414.12C939.937,1414.27 941.012,1414.39 941.722,1414.48C942.431,1414.56 942.809,1414.61 942.855,1414.61C945.252,1414.74 947.53,1413.75 949.689,1411.64L958.524,1402.98C958.662,1403.12 958.812,1403.31 958.973,1403.54C959.134,1403.77 959.307,1404.03 959.491,1404.31C959.675,1404.59 959.841,1404.85 959.99,1405.1C960.14,1405.34 960.272,1405.54 960.387,1405.71ZM955.73,1398.82L943.797,1410.51C941.92,1412.35 940.098,1413.12 938.331,1412.83C938.155,1408.77 939.44,1405.4 942.185,1402.71C944.016,1400.91 946.109,1399.64 948.467,1398.9C951.057,1398.06 953.478,1398.03 955.73,1398.82Z" style="fill:white;fill-rule:nonzero;"/>
        <path d="M984.639,1447.79L984.307,1446.69C984.263,1446.71 984.179,1446.73 984.054,1446.76C983.928,1446.79 983.844,1446.81 983.8,1446.82C983.049,1447 982.512,1447.01 982.188,1446.85C981.805,1446.66 981.628,1446.31 981.657,1445.81C981.671,1445.05 981.994,1444.04 982.626,1442.78L982.803,1442.43L989.549,1427.2C989.681,1426.86 989.784,1426.62 989.857,1426.47C989.931,1426.33 989.96,1426.27 989.946,1426.3L990.32,1425.55C990.85,1424.49 991.423,1423.68 992.041,1423.11C992.747,1422.43 993.925,1421.99 995.573,1421.79L996.523,1421.65L996.39,1420.71C995.344,1420.66 994.299,1420.73 993.254,1420.91C992.209,1421.08 991.164,1421.37 990.119,1421.77C989.971,1421.47 989.842,1421.22 989.732,1421C989.621,1420.78 989.514,1420.59 989.411,1420.42C987.466,1417.19 985.064,1414.86 982.207,1413.44L981.81,1413.24C978.982,1411.98 975.986,1411.83 972.822,1412.78C969.657,1413.74 967.399,1415.57 966.046,1418.27C964.165,1422.02 964.514,1425.99 967.093,1430.16L961.575,1433.25C961.148,1433.51 960.714,1433.75 960.272,1433.97C959.831,1434.19 959.397,1434.44 958.97,1434.7C957.999,1435.32 957.315,1436.02 956.918,1436.81C956.874,1436.9 956.852,1436.98 956.852,1437.06L956.742,1437.28C956.492,1438.29 956.75,1438.98 957.516,1439.37C958.223,1439.72 958.753,1439.61 959.106,1439.06C959.179,1438.91 959.227,1438.7 959.249,1438.44C959.271,1438.18 959.278,1437.9 959.27,1437.63C959.263,1437.35 959.259,1437.08 959.259,1436.82C959.258,1436.57 959.28,1436.39 959.325,1436.31C959.442,1436.07 959.655,1435.9 959.965,1435.8C960.274,1435.7 960.546,1435.7 960.782,1435.82C961.312,1436.09 961.864,1436.52 962.439,1437.14C964.104,1439.03 965.71,1441.44 967.258,1444.37L977.569,1442.3C977.29,1442.93 977.058,1443.5 976.875,1444.01C976.691,1444.53 976.548,1445 976.445,1445.42C976.152,1446.6 976.521,1447.95 977.552,1449.49L984.639,1447.79ZM979.685,1437.52L978.142,1441.04L972.203,1442.21L964.224,1432.91L967.182,1431.31L979.685,1437.52ZM978.505,1423.91L968.175,1429.55C966.214,1425.9 965.983,1422.58 967.483,1419.58C968.438,1417.68 969.99,1416.45 972.139,1415.91C974.804,1415.29 977.211,1415.52 979.361,1416.58C981.511,1417.65 983.19,1419.04 984.399,1420.74L982.236,1421.97C981.042,1420.97 979.901,1420.2 978.811,1419.66C976.661,1418.59 974.357,1419.15 971.901,1421.34L972.497,1422.13C973.998,1421.41 975.294,1421.32 976.384,1421.87C977.091,1422.22 977.798,1422.9 978.505,1423.91ZM985.836,1423.6L981.074,1434.31L970.913,1429.26L984.952,1421.73C985.35,1422.4 985.644,1423.02 985.836,1423.6Z" style="fill:white;fill-rule:nonzero;"/>
        <path d="M1012.37,1452.95L1016.13,1430.29C1016.32,1430.32 1016.63,1430.38 1017.04,1430.49C1017.46,1430.59 1017.77,1430.65 1017.96,1430.69C1020.14,1431.05 1022.06,1430.76 1023.73,1429.84C1025.4,1428.92 1026.51,1427.41 1027.06,1425.3L1026.32,1424.93C1025.02,1426.55 1023.18,1427.16 1020.81,1426.77C1019.16,1426.5 1016.77,1425.81 1013.65,1424.69C1012.08,1424.1 1010.71,1423.64 1009.53,1423.29C1008.35,1422.95 1007.34,1422.71 1006.49,1422.57C1003.25,1422.04 1000.43,1422.46 998.05,1423.85C995.668,1425.24 993.822,1427.47 992.512,1430.54L993.235,1431.01C995.74,1427.17 999.071,1425.59 1003.23,1426.27L1003.76,1426.36C1003.92,1426.42 1004.1,1426.46 1004.29,1426.5C1004.45,1426.56 1004.62,1426.61 1004.79,1426.65C1004.97,1426.7 1005.14,1426.73 1005.3,1426.76C998.599,1429.95 994.785,1434.34 993.858,1439.93C993.183,1444.01 994.049,1447.64 996.457,1450.83C998.903,1453.99 1002.16,1455.9 1006.22,1456.57C1009.79,1457.16 1013.2,1456.62 1016.44,1454.96C1019.66,1453.27 1021.98,1450.76 1023.39,1447.43L1022.64,1447.16C1019.78,1450.74 1016.35,1452.67 1012.37,1452.95ZM1015.09,1429.91L1011.26,1453.01C1011.16,1453.03 1011.06,1453.03 1010.96,1453.02C1010.86,1453 1010.78,1453 1010.71,1453.02C1010.54,1453.03 1010.36,1453.02 1010.16,1453.01C1009.96,1452.99 1009.76,1452.97 1009.57,1452.94L1008.99,1452.84C1006.55,1452.44 1004.35,1451.35 1002.37,1449.56C1003.63,1448.84 1004.57,1448.3 1005.19,1447.95C1005.82,1447.61 1006.15,1447.42 1006.19,1447.39C1008.2,1446.1 1009.46,1443.96 1009.95,1440.99L1011.97,1428.8C1012.16,1428.84 1012.39,1428.9 1012.66,1428.99C1012.93,1429.09 1013.22,1429.19 1013.53,1429.31C1013.85,1429.43 1014.14,1429.54 1014.4,1429.65C1014.67,1429.76 1014.9,1429.85 1015.09,1429.91ZM1007.25,1427.08L1004.52,1443.53C1004.09,1446.12 1003.08,1447.81 1001.48,1448.62C998.935,1445.44 997.977,1441.96 998.604,1438.17C999.022,1435.65 999.963,1433.39 1001.43,1431.41C1003.02,1429.21 1004.97,1427.77 1007.25,1427.08Z" style="fill:white;fill-rule:nonzero;"/>
        <path d="M1050.63,1451.69L1047.71,1428.91C1047.9,1428.89 1048.21,1428.86 1048.64,1428.84C1049.07,1428.82 1049.38,1428.8 1049.58,1428.77C1051.77,1428.49 1053.53,1427.67 1054.87,1426.31C1056.2,1424.95 1056.83,1423.19 1056.75,1421.02L1055.93,1420.87C1055.15,1422.79 1053.57,1423.9 1051.18,1424.2C1049.52,1424.42 1047.03,1424.44 1043.72,1424.26C1042.05,1424.15 1040.6,1424.09 1039.37,1424.1C1038.14,1424.11 1037.11,1424.16 1036.26,1424.27C1032.99,1424.69 1030.42,1425.9 1028.54,1427.91C1026.65,1429.92 1025.53,1432.58 1025.16,1435.9L1025.99,1436.14C1027.28,1431.75 1030.02,1429.28 1034.19,1428.75L1034.73,1428.68C1034.9,1428.69 1035.08,1428.69 1035.28,1428.66C1035.45,1428.67 1035.62,1428.68 1035.8,1428.67C1035.98,1428.66 1036.16,1428.65 1036.32,1428.63C1030.82,1433.59 1028.43,1438.89 1029.15,1444.52C1029.68,1448.62 1031.55,1451.85 1034.78,1454.21C1038.03,1456.54 1041.7,1457.45 1045.78,1456.92C1049.37,1456.47 1052.48,1454.98 1055.11,1452.46C1057.71,1449.92 1059.2,1446.85 1059.61,1443.26L1058.8,1443.22C1057.09,1447.47 1054.37,1450.29 1050.63,1451.69ZM1046.6,1428.86L1049.59,1452.08C1049.49,1452.12 1049.4,1452.15 1049.3,1452.16C1049.2,1452.17 1049.12,1452.2 1049.06,1452.24C1048.9,1452.3 1048.72,1452.34 1048.53,1452.38C1048.34,1452.43 1048.14,1452.46 1047.95,1452.48L1047.36,1452.56C1044.91,1452.87 1042.48,1452.45 1040.08,1451.31C1041.07,1450.25 1041.82,1449.47 1042.32,1448.96C1042.82,1448.45 1043.08,1448.18 1043.11,1448.14C1044.67,1446.32 1045.25,1443.92 1044.87,1440.93L1043.3,1428.68C1043.49,1428.66 1043.73,1428.65 1044.02,1428.66C1044.3,1428.68 1044.61,1428.7 1044.94,1428.72C1045.28,1428.74 1045.59,1428.77 1045.88,1428.8C1046.16,1428.83 1046.4,1428.85 1046.6,1428.86ZM1038.28,1428.38L1040.4,1444.92C1040.74,1447.52 1040.25,1449.43 1038.95,1450.66C1035.6,1448.34 1033.68,1445.28 1033.19,1441.47C1032.87,1438.94 1033.12,1436.51 1033.95,1434.19C1034.85,1431.63 1036.29,1429.69 1038.28,1428.38Z" style="fill:white;fill-rule:nonzero;"/>
        <path d="M1061.04,1429.82L1061.06,1429.87C1061.39,1433.77 1062.18,1436.98 1063.44,1439.51C1065.27,1443.18 1068.01,1445.67 1071.64,1446.99C1075.34,1448.3 1079,1448.07 1082.59,1446.29C1085.98,1444.61 1088.68,1441.5 1090.68,1436.96C1092.56,1432.7 1093.28,1428.61 1092.83,1424.69C1092.63,1423.04 1092.24,1421.64 1091.67,1420.49C1089.96,1417.06 1087.14,1414.79 1083.21,1413.69C1079.84,1412.76 1076.12,1412.82 1072.06,1413.88C1071.53,1414 1071.22,1414.08 1071.13,1414.12L1061.04,1429.82ZM1070.83,1419.16L1082.38,1442.33C1079.45,1443.38 1076.46,1443.39 1073.42,1442.37C1074.63,1439.87 1075.3,1438.11 1075.42,1437.1C1075.66,1435.52 1075.24,1433.65 1074.17,1431.51L1068.53,1420.19C1068.91,1420 1069.29,1419.82 1069.67,1419.65C1070.04,1419.48 1070.43,1419.32 1070.83,1419.16ZM1083.33,1441.8L1079.34,1433.79C1079.9,1431.6 1081.14,1430.04 1083.06,1429.09C1085.06,1428.1 1087.23,1428.1 1089.57,1429.11C1089.93,1431.75 1089.58,1434.21 1088.51,1436.5C1087.35,1438.94 1085.62,1440.71 1083.33,1441.8ZM1065.67,1424.73L1071.44,1436.32C1072.1,1437.64 1072.48,1438.55 1072.59,1439.05C1072.78,1440.02 1072.71,1440.99 1072.38,1441.95C1069.23,1440.29 1066.97,1438.07 1065.6,1435.31C1063.85,1431.82 1063.88,1428.29 1065.67,1424.73ZM1078.65,1432.42L1075.36,1425.82C1077.65,1426.29 1079.67,1426.1 1081.41,1425.24C1083.12,1424.39 1084.55,1422.88 1085.71,1420.69C1086.76,1421.78 1087.51,1422.77 1087.95,1423.65L1088.28,1424.31C1088.33,1424.47 1088.38,1424.61 1088.43,1424.73C1088.49,1424.85 1088.54,1424.93 1088.57,1424.99C1088.79,1425.58 1088.96,1426.11 1089.09,1426.6C1089.22,1427.08 1089.33,1427.51 1089.4,1427.88C1086.74,1427.11 1084.46,1427.19 1082.57,1428.12C1080.86,1428.97 1079.56,1430.4 1078.65,1432.42ZM1074.85,1424.8L1071.87,1418.81C1077.11,1417.09 1081.45,1417.46 1084.87,1419.9C1084.1,1421.97 1082.79,1423.46 1080.93,1424.38C1079.19,1425.24 1077.16,1425.38 1074.85,1424.8Z" style="fill:white;fill-rule:nonzero;"/>
        <path d="M1092.17,1413.23L1092.21,1413.26C1093.87,1416.81 1095.73,1419.55 1097.79,1421.49C1100.78,1424.3 1104.21,1425.7 1108.07,1425.68C1112.01,1425.64 1115.35,1424.16 1118.11,1421.26C1120.71,1418.52 1122.16,1414.67 1122.46,1409.72C1122.75,1405.07 1122,1400.99 1120.22,1397.47C1119.46,1395.98 1118.61,1394.8 1117.68,1393.92C1114.88,1391.29 1111.44,1390.13 1107.38,1390.46C1103.89,1390.74 1100.43,1392.08 1096.98,1394.48C1096.52,1394.77 1096.26,1394.95 1096.19,1395.02L1092.17,1413.23ZM1097.66,1399.85L1116.54,1417.61C1114.15,1419.61 1111.35,1420.65 1108.14,1420.74C1108.41,1417.97 1108.43,1416.09 1108.19,1415.1C1107.87,1413.54 1106.83,1411.93 1105.08,1410.29L1095.86,1401.61C1096.15,1401.3 1096.44,1401 1096.74,1400.71C1097.03,1400.42 1097.34,1400.14 1097.66,1399.85ZM1117.25,1416.79L1110.72,1410.65C1110.49,1408.4 1111.11,1406.51 1112.58,1404.96C1114.12,1403.34 1116.15,1402.59 1118.7,1402.73C1119.95,1405.08 1120.48,1407.52 1120.27,1410.03C1120.02,1412.73 1119.01,1414.98 1117.25,1416.79ZM1094.75,1406.86L1104.19,1415.74C1105.27,1416.75 1105.94,1417.47 1106.21,1417.91C1106.72,1418.75 1106.99,1419.68 1107.02,1420.7C1103.49,1420.22 1100.6,1418.92 1098.35,1416.81C1095.51,1414.13 1094.3,1410.81 1094.75,1406.86ZM1109.6,1409.6L1104.22,1404.53C1106.54,1404.19 1108.36,1403.32 1109.7,1401.91C1111.01,1400.53 1111.83,1398.61 1112.15,1396.17C1113.52,1396.82 1114.57,1397.49 1115.28,1398.17L1115.82,1398.67C1115.92,1398.81 1116.02,1398.92 1116.11,1399.01C1116.21,1399.1 1116.28,1399.17 1116.33,1399.21C1116.74,1399.69 1117.09,1400.13 1117.38,1400.54C1117.67,1400.95 1117.91,1401.32 1118.11,1401.63C1115.34,1401.83 1113.24,1402.69 1111.79,1404.21C1110.48,1405.6 1109.75,1407.39 1109.6,1409.6ZM1103.39,1403.76L1098.51,1399.16C1102.84,1395.75 1107.03,1394.6 1111.09,1395.71C1111.08,1397.91 1110.37,1399.77 1108.94,1401.27C1107.61,1402.67 1105.76,1403.51 1103.39,1403.76Z" style="fill:white;fill-rule:nonzero;"/>
    </g>
    <g transform="matrix(0.719096,0,0,0.690717,-640.102,-800.926)">
        <path d="M1003.53,1224.77L1002.26,1224.4C1002.05,1225.06 1001.74,1225.55 1001.34,1225.89C1000.9,1226.25 1000.45,1226.33 999.992,1226.13C999.259,1225.84 998.456,1225.13 997.585,1224L984.444,1206.92C982.378,1204.24 981.348,1201.81 981.352,1199.63C981.383,1199.07 981.414,1198.58 981.444,1198.16C981.475,1197.73 981.506,1197.38 981.537,1197.09L980.138,1197.06L979.778,1201.26L972.785,1201.52L971.944,1211.46L973.203,1211.6L973.647,1207.01L977.004,1207L982.305,1213.89C981.927,1215.05 981.182,1216.2 980.07,1217.34L979.418,1217.89C977.864,1218.92 976.239,1219.42 974.542,1219.41L964.91,1206.89L964.296,1207.49C964.296,1208.28 964.132,1209.03 963.803,1209.73C963.288,1210.85 962.44,1211.9 961.26,1212.88C960.328,1213.66 958.607,1214.54 956.097,1215.52C953.524,1216.55 951.846,1217.42 951.064,1218.13C949.399,1219.67 948.701,1221.45 948.97,1223.46C949.37,1226.1 950.565,1228.71 952.556,1231.3L952.818,1231.64C952.942,1231.8 953.045,1231.9 953.126,1231.94L954.095,1231.21C951.332,1227.62 951.162,1224.81 953.585,1222.79C953.833,1222.59 954.066,1222.39 954.284,1222.21C954.501,1222.03 954.746,1221.85 955.02,1221.67C956.3,1220.82 957.306,1220.14 958.039,1219.63C958.772,1219.13 959.263,1218.77 959.512,1218.57L960.257,1217.94C960.611,1217.54 960.906,1217.23 961.142,1217.01C961.378,1216.78 961.53,1216.62 961.599,1216.51C959.912,1222 959.079,1226.39 959.101,1229.66C959.135,1234.14 960.583,1238.25 963.446,1241.96C966.258,1245.62 969.765,1247.79 973.968,1248.48C978.332,1249.25 982.222,1248.2 985.639,1245.35C987.627,1243.7 989.201,1241.93 990.362,1240.06C992.007,1237.36 993.21,1233.75 993.972,1229.24C995.147,1230.7 996.329,1231.71 997.517,1232.26C998.785,1232.85 1000.27,1232.99 1001.97,1232.68L1003.53,1224.77ZM965.939,1210.42L987.256,1238.11L986.65,1238.62C986.613,1238.7 986.532,1238.8 986.408,1238.9L985.523,1239.64C983.094,1241.45 980.614,1242.4 978.084,1242.5C978.885,1240.29 979.368,1238 979.534,1235.63C979.675,1233.5 978.937,1231.38 977.319,1229.28L968.135,1217.35C966.493,1215.21 965.76,1212.9 965.939,1210.42ZM988.131,1237.06L980.628,1227.31C981.204,1225.61 982.052,1224.29 983.17,1223.36C984.319,1222.4 985.922,1221.7 987.979,1221.26L992.721,1227.42C991.761,1231.67 990.231,1234.89 988.131,1237.06ZM976.359,1242.34L976.397,1242.39C972.331,1241.75 968.904,1239.62 966.117,1235.99C963.628,1232.76 962.283,1229.02 962.08,1224.79C961.953,1220.91 962.724,1216.97 964.393,1212.98C964.407,1214.72 964.427,1216.14 964.452,1217.23C964.478,1218.33 964.513,1219.07 964.556,1219.45C964.875,1221.79 965.682,1223.8 966.976,1225.48L973.621,1234.11C976.035,1237.25 976.948,1239.99 976.359,1242.34ZM979.62,1226L975.588,1220.77C977.017,1220.63 978.31,1220.19 979.465,1219.44C979.583,1219.4 979.72,1219.31 979.875,1219.18L980.155,1218.95C981.615,1217.73 982.63,1216.43 983.201,1215.05L987.083,1220.1C985.263,1220.45 983.684,1221.18 982.349,1222.29C981.417,1223.07 980.507,1224.31 979.62,1226Z" style="fill:white;fill-rule:nonzero;"/>
        <path d="M1032.8,1213.78L1024.74,1186C1024.96,1185.93 1025.33,1185.83 1025.84,1185.72C1026.35,1185.6 1026.71,1185.51 1026.94,1185.43C1029.49,1184.63 1031.43,1183.24 1032.75,1181.27C1034.07,1179.3 1034.46,1176.96 1033.93,1174.27L1032.93,1174.26C1032.38,1176.82 1030.72,1178.53 1027.94,1179.41C1025.99,1180.02 1023.03,1180.56 1019.05,1181.03C1017.03,1181.24 1015.29,1181.47 1013.83,1181.74C1012.37,1182 1011.14,1182.29 1010.15,1182.6C1006.34,1183.8 1003.52,1185.85 1001.68,1188.74C999.835,1191.64 999.027,1195.19 999.253,1199.41L1000.29,1199.54C1000.95,1193.79 1003.72,1190.15 1008.59,1188.61L1009.22,1188.41C1009.42,1188.39 1009.64,1188.35 1009.87,1188.28C1010.07,1188.26 1010.28,1188.22 1010.49,1188.18C1010.71,1188.13 1010.91,1188.08 1011.1,1188.02C1005.54,1195.35 1003.75,1202.45 1005.75,1209.31C1007.2,1214.31 1010.08,1217.95 1014.4,1220.22C1018.75,1222.45 1023.3,1222.81 1028.07,1221.31C1032.26,1219.99 1035.67,1217.49 1038.3,1213.81C1040.88,1210.09 1042.05,1205.96 1041.81,1201.4L1040.84,1201.51C1039.66,1207.17 1036.98,1211.26 1032.8,1213.78ZM1023.41,1186.16L1031.63,1214.48C1031.53,1214.55 1031.42,1214.61 1031.31,1214.64C1031.19,1214.68 1031.1,1214.73 1031.04,1214.79C1030.86,1214.89 1030.66,1214.99 1030.44,1215.08C1030.21,1215.17 1029.99,1215.25 1029.76,1215.33L1029.07,1215.54C1026.21,1216.44 1023.24,1216.43 1020.14,1215.5C1021.11,1213.98 1021.85,1212.85 1022.34,1212.11C1022.83,1211.37 1023.09,1210.98 1023.12,1210.92C1024.61,1208.33 1024.83,1205.21 1023.77,1201.56L1019.43,1186.63C1019.66,1186.56 1019.94,1186.5 1020.28,1186.46C1020.63,1186.41 1021,1186.37 1021.4,1186.33C1021.81,1186.29 1022.18,1186.26 1022.53,1186.24C1022.88,1186.22 1023.17,1186.19 1023.41,1186.16ZM1013.39,1187.3L1019.24,1207.47C1020.17,1210.64 1019.97,1213.12 1018.66,1214.92C1014.2,1212.73 1011.3,1209.32 1009.95,1204.68C1009.05,1201.58 1008.87,1198.5 1009.39,1195.44C1009.95,1192.06 1011.28,1189.35 1013.39,1187.3Z" style="fill:white;fill-rule:nonzero;"/>
        <path d="M1048.85,1216.29L1048.91,1216.29C1050.1,1214.22 1051.57,1213.22 1053.32,1213.28C1054.83,1213.34 1057,1213.97 1059.82,1215.2C1062.69,1216.42 1064.92,1217.06 1066.51,1217.12C1069.53,1217.23 1072.02,1216.14 1073.96,1213.85C1075.55,1211.87 1076.55,1209.17 1076.99,1205.75C1077.04,1205.29 1077.08,1204.89 1077.12,1204.54C1077.15,1204.19 1077.17,1203.91 1077.17,1203.7C1077.22,1202.42 1077.18,1200.89 1077.06,1199.13C1076.94,1197.36 1076.76,1195.31 1076.52,1192.98C1075.97,1188.07 1075.73,1184.52 1075.8,1182.32C1075.91,1179.01 1077.5,1177.01 1080.55,1176.34L1081.45,1176.12L1080.88,1175.1C1074.49,1175.87 1071.16,1180.18 1070.89,1188.05C1070.85,1189.25 1070.89,1190.74 1071.01,1192.53C1071.13,1194.32 1071.31,1196.42 1071.54,1198.83C1071.78,1201.25 1071.96,1203.36 1072.08,1205.16C1072.19,1206.97 1072.23,1208.48 1072.19,1209.68C1072.14,1211.29 1071.7,1212.62 1070.87,1213.67C1070.03,1214.72 1068.86,1215.22 1067.35,1215.16C1066.2,1215.12 1064.66,1214.15 1062.73,1212.26C1062.19,1211.7 1061.73,1211.25 1061.34,1210.9C1060.95,1210.55 1060.62,1210.29 1060.35,1210.12C1062.71,1209.95 1064.47,1209.46 1065.66,1208.63C1067.05,1207.64 1067.78,1205.97 1067.86,1203.61C1067.89,1202.66 1067.87,1201.5 1067.8,1200.13C1067.72,1198.76 1067.62,1197.13 1067.48,1195.26C1067.35,1193.39 1067.24,1191.76 1067.17,1190.37C1067.1,1188.98 1067.08,1187.81 1067.11,1186.85C1067.27,1182.13 1069.15,1178.26 1072.76,1175.24L1072.24,1174.6C1070.78,1175.25 1069.34,1175.55 1067.91,1175.5C1066.91,1175.46 1065.55,1175.21 1063.81,1174.73C1061.96,1174.21 1060.57,1173.93 1059.66,1173.89C1057.83,1173.83 1056.25,1174.42 1054.91,1175.68C1053.57,1176.94 1052.77,1178.56 1052.51,1180.54L1053.15,1180.75C1054.18,1178.67 1055.63,1177.67 1057.5,1177.73C1057.7,1177.74 1057.91,1177.76 1058.15,1177.79C1058.39,1177.82 1058.61,1177.86 1058.81,1177.91C1059.83,1178.15 1060.67,1178.34 1061.33,1178.46C1061.98,1178.59 1062.4,1178.66 1062.6,1178.67C1063.6,1178.7 1065.26,1178.35 1067.6,1177.61C1067.84,1177.53 1067.98,1177.47 1068.02,1177.43C1064.2,1181.03 1062.09,1185.59 1061.71,1191.13C1061.35,1191.04 1061.1,1190.98 1060.94,1190.95C1060.78,1190.92 1060.62,1190.89 1060.46,1190.84L1059.99,1190.82C1057.28,1190.73 1055.02,1192.28 1053.2,1195.49L1053.72,1195.94C1055.03,1194.79 1056.4,1194.24 1057.84,1194.29C1059.39,1194.35 1060.54,1194.99 1061.3,1196.22C1062.54,1198.34 1063.12,1200.74 1063.03,1203.43C1062.94,1205.96 1062.37,1207.5 1061.32,1208.04C1060.14,1208.62 1058.44,1208.97 1056.2,1209.09C1052.29,1209.33 1049.61,1211.63 1048.14,1216.02L1048.85,1216.29Z" style="fill:white;fill-rule:nonzero;"/>
        <path d="M1119.15,1224.95L1118.57,1223.53L1115.18,1225.01C1113.3,1221.49 1110.64,1219.07 1107.2,1217.74C1106.8,1217.58 1106.37,1217.42 1105.94,1217.28C1105.5,1217.13 1105.07,1217 1104.65,1216.88C1102.7,1216.39 1100.88,1216.12 1099.19,1216.09C1101.2,1215.45 1102.94,1214.78 1104.41,1214.07C1105.87,1213.35 1107.1,1212.63 1108.08,1211.91C1110.85,1209.97 1112.83,1207.34 1114.03,1204C1114.22,1203.45 1114.44,1202.75 1114.69,1201.87C1114.94,1200.99 1115.19,1199.96 1115.45,1198.78C1116.03,1196.44 1116.53,1194.69 1116.94,1193.52C1118.13,1190.22 1120.78,1189.09 1124.92,1190.11L1124.76,1188.59C1121.59,1187.36 1118.81,1187.17 1116.43,1188.02C1113.89,1188.93 1112.04,1191.03 1110.88,1194.29C1110.49,1195.38 1110.02,1197.03 1109.48,1199.25C1109.24,1200.4 1109.01,1201.38 1108.78,1202.2C1108.55,1203.01 1108.34,1203.69 1108.14,1204.24C1106.01,1210.22 1101.74,1214.03 1095.34,1215.66C1099.97,1212.68 1103.12,1208.86 1104.78,1204.2C1105.02,1203.54 1105.28,1202.73 1105.55,1201.78C1105.83,1200.82 1106.12,1199.69 1106.41,1198.39C1106.71,1197.09 1107,1195.96 1107.28,1194.98C1107.57,1194.01 1107.82,1193.21 1108.04,1192.59C1108.65,1190.88 1109.53,1189.57 1110.67,1188.64C1111.59,1187.84 1112.95,1187.11 1114.76,1186.44C1115.01,1186.36 1115.21,1186.29 1115.38,1186.22C1115.56,1186.15 1115.69,1186.1 1115.8,1186.05L1115.58,1185.04C1113.19,1185.31 1111.33,1185.18 1109.99,1184.66C1109.09,1184.31 1107.91,1183.52 1106.44,1182.29C1105.01,1181.07 1103.84,1180.29 1102.95,1179.94C1101.35,1179.41 1099.76,1179.52 1098.17,1180.28C1096.59,1181.04 1095.5,1182.23 1094.92,1183.86C1094.73,1184.4 1094.6,1185.24 1094.53,1186.36L1095.67,1186.4C1095.69,1186.33 1095.7,1186.26 1095.67,1186.21L1095.74,1186.03C1095.77,1185.69 1095.82,1185.44 1095.87,1185.29C1096.15,1184.51 1096.62,1183.93 1097.29,1183.55C1097.96,1183.17 1098.65,1183.12 1099.36,1183.39C1100.06,1183.66 1100.79,1184.14 1101.52,1184.83C1101.59,1184.85 1101.64,1184.89 1101.66,1184.95L1101.83,1185.01C1102.84,1185.89 1103.65,1186.45 1104.29,1186.69C1105.18,1187.04 1106.87,1187.38 1109.34,1187.72L1108.64,1188.05C1105.06,1189.76 1102.61,1192.46 1101.29,1196.14C1101.21,1196.38 1101.1,1196.74 1100.97,1197.21C1100.84,1197.69 1100.74,1198.05 1100.65,1198.29C1100.36,1198.04 1100.14,1197.89 1099.99,1197.83C1099.62,1197.55 1099.16,1197.31 1098.6,1197.09C1097.02,1196.52 1095.22,1196.84 1093.22,1198.06L1093.68,1198.9C1094.62,1198.64 1095.52,1198.68 1096.38,1199.02C1099.03,1200.04 1099.78,1202.33 1098.65,1205.86C1098.02,1204.87 1097.23,1204.19 1096.26,1203.81C1095.21,1203.41 1093.98,1203.59 1092.56,1204.37L1092.87,1205.28C1093.43,1205.24 1093.98,1205.32 1094.5,1205.52C1095.47,1205.89 1096.12,1206.59 1096.46,1207.6C1096.8,1208.62 1096.82,1209.66 1096.52,1210.74L1096.41,1211.03C1095.35,1213.67 1092.61,1215.62 1088.21,1216.87C1087.64,1217.05 1087.13,1217.2 1086.68,1217.31C1086.24,1217.43 1085.84,1217.5 1085.49,1217.54L1085.76,1218.91C1091.6,1218.03 1096.85,1218.5 1101.51,1220.3C1105.13,1221.71 1108.2,1224.46 1110.72,1228.58L1119.15,1224.95Z" style="fill:white;fill-rule:nonzero;"/>
        <path d="M1150.59,1252.69L1150.53,1251.25C1150.47,1251.25 1150.36,1251.25 1150.21,1251.25C1150.05,1251.25 1149.95,1251.25 1149.89,1251.25C1148.96,1251.24 1148.33,1251.09 1147.99,1250.8C1147.6,1250.44 1147.49,1249.97 1147.67,1249.37C1147.91,1248.43 1148.59,1247.29 1149.69,1245.94L1150.01,1245.56L1162.37,1228.92C1162.62,1228.55 1162.81,1228.29 1162.94,1228.13C1163.07,1227.97 1163.12,1227.91 1163.1,1227.94L1163.76,1227.13C1164.69,1226 1165.6,1225.17 1166.49,1224.66C1167.52,1224.04 1169.03,1223.86 1171.02,1224.11L1172.17,1224.23L1172.29,1223.03C1171.08,1222.66 1169.83,1222.43 1168.56,1222.33C1167.28,1222.23 1165.97,1222.26 1164.62,1222.43C1164.54,1222.03 1164.46,1221.67 1164.39,1221.37C1164.33,1221.07 1164.26,1220.8 1164.19,1220.57C1162.85,1216.01 1160.71,1212.42 1157.77,1209.82L1157.36,1209.45C1154.41,1207.05 1150.94,1205.96 1146.95,1206.17C1142.96,1206.39 1139.77,1207.94 1137.4,1210.85C1134.09,1214.88 1133.34,1219.85 1135.15,1225.76L1127.77,1227.87C1127.19,1228.07 1126.62,1228.23 1126.03,1228.37C1125.45,1228.5 1124.87,1228.67 1124.29,1228.86C1122.97,1229.33 1121.96,1229.98 1121.27,1230.83C1121.19,1230.93 1121.14,1231.02 1121.12,1231.11L1120.92,1231.35C1120.34,1232.51 1120.44,1233.45 1121.22,1234.14C1121.95,1234.79 1122.6,1234.82 1123.18,1234.25C1123.31,1234.09 1123.42,1233.85 1123.53,1233.54C1123.63,1233.22 1123.72,1232.89 1123.79,1232.54C1123.86,1232.2 1123.94,1231.87 1124.01,1231.56C1124.09,1231.24 1124.16,1231.04 1124.24,1230.94C1124.45,1230.69 1124.75,1230.55 1125.14,1230.51C1125.53,1230.48 1125.85,1230.57 1126.09,1230.79C1126.64,1231.27 1127.16,1231.98 1127.65,1232.91C1129.05,1235.73 1130.23,1239.17 1131.19,1243.24L1143.9,1243.82C1143.39,1244.5 1142.95,1245.14 1142.59,1245.71C1142.22,1246.28 1141.91,1246.82 1141.67,1247.31C1140.98,1248.66 1141.02,1250.43 1141.78,1252.63L1150.59,1252.69ZM1147.78,1238.6L1144.94,1242.45L1137.63,1242.09L1130.98,1228.27L1134.92,1227.19L1147.78,1238.6ZM1150.37,1221.54L1136.6,1225.33C1135.36,1220.26 1136.06,1216.12 1138.7,1212.9C1140.38,1210.85 1142.56,1209.82 1145.24,1209.8C1148.54,1209.85 1151.3,1210.85 1153.51,1212.82C1155.72,1214.78 1157.29,1216.99 1158.21,1219.44L1155.31,1220.3C1154.2,1218.71 1153.09,1217.42 1151.97,1216.43C1149.76,1214.46 1146.89,1214.45 1143.37,1216.39L1143.84,1217.54C1145.81,1217.12 1147.36,1217.4 1148.48,1218.39C1149.2,1219.04 1149.84,1220.09 1150.37,1221.54ZM1159.07,1223.38L1150.35,1235.08L1139.9,1225.81L1158.57,1220.82C1158.84,1221.77 1159.01,1222.62 1159.07,1223.38Z" style="fill:white;fill-rule:nonzero;"/>
    </g>
    <g transform="matrix(0.0816255,0.710758,-0.740438,0.0786901,849.66,-704.709)">
        <path d="M1053.4,1187.8L1055.38,1193.87L1061.76,1193.87L1056.6,1197.62L1058.57,1203.69L1053.4,1199.94L1048.24,1203.69L1050.21,1197.62L1045.05,1193.87L1051.43,1193.87L1053.4,1187.8Z" style="fill:white;"/>
    </g>
    <g transform="matrix(0.242661,0.675642,-0.704299,0.234239,642.417,-839.336)">
        <path d="M1053.4,1187.8L1055.38,1193.87L1061.76,1193.87L1056.6,1197.62L1058.57,1203.69L1053.4,1199.94L1048.24,1203.69L1050.21,1197.62L1045.05,1193.87L1051.43,1193.87L1053.4,1187.8Z" style="fill:white;"/>
    </g>
    <g transform="matrix(0.39143,0.606858,-0.633835,0.378223,410.169,-926.181)">
        <path d="M1053.4,1187.8L1055.38,1193.87L1061.76,1193.87L1056.6,1197.62L1058.57,1203.69L1053.4,1199.94L1048.24,1203.69L1050.21,1197.62L1045.05,1193.87L1051.43,1193.87L1053.4,1187.8Z" style="fill:white;"/>
    </g>
    <g transform="matrix(0.520113,0.508111,-0.533461,0.503041,166.006,-960.637)">
        <path d="M1053.4,1187.8L1055.38,1193.87L1061.76,1193.87L1056.6,1197.62L1058.57,1203.69L1053.4,1199.94L1048.24,1203.69L1050.21,1197.62L1045.05,1193.87L1051.43,1193.87L1053.4,1187.8Z" style="fill:white;"/>
    </g>
    <g transform="matrix(0.623254,0.384172,-0.408661,0.602803,-78.3404,-941.239)">
        <path d="M1053.4,1187.8L1055.38,1193.87L1061.76,1193.87L1056.6,1197.62L1058.57,1203.69L1053.4,1199.94L1048.24,1203.69L1050.21,1197.62L1045.05,1193.87L1051.43,1193.87L1053.4,1187.8Z" style="fill:white;"/>
    </g>
    <g transform="matrix(0.697735,0.239051,-0.263291,0.673257,-315.516,-867.473)">
        <path d="M1053.4,1187.8L1055.38,1193.87L1061.76,1193.87L1056.6,1197.62L1058.57,1203.69L1053.4,1199.94L1048.24,1203.69L1050.21,1197.62L1045.05,1193.87L1051.43,1193.87L1053.4,1187.8Z" style="fill:white;"/>
    </g>
    <g transform="matrix(0.739043,0.0816056,-0.104974,0.7092,-532.443,-742.725)">
        <path d="M1053.4,1187.8L1055.38,1193.87L1061.76,1193.87L1056.6,1197.62L1058.57,1203.69L1053.4,1199.94L1048.24,1203.69L1050.21,1197.62L1045.05,1193.87L1051.43,1193.87L1053.4,1187.8Z" style="fill:white;"/>
    </g>
    <g transform="matrix(0.745335,-0.0777392,0.0562966,0.708834,-715.955,-575.849)">
        <path d="M1053.4,1187.8L1055.38,1193.87L1061.76,1193.87L1056.6,1197.62L1058.57,1203.69L1053.4,1199.94L1048.24,1203.69L1050.21,1197.62L1045.05,1193.87L1051.43,1193.87L1053.4,1187.8Z" style="fill:white;"/>
    </g>
    <g transform="matrix(0.716222,-0.233989,0.217457,0.672715,-862.792,-372.717)">
        <path d="M1053.4,1187.8L1055.38,1193.87L1061.76,1193.87L1056.6,1197.62L1058.57,1203.69L1053.4,1199.94L1048.24,1203.69L1050.21,1197.62L1045.05,1193.87L1051.43,1193.87L1053.4,1187.8Z" style="fill:white;"/>
    </g>
    <g transform="matrix(0.651897,-0.377909,0.369539,0.602922,-963.084,-145.364)">
        <path d="M1053.4,1187.8L1055.38,1193.87L1061.76,1193.87L1056.6,1197.62L1058.57,1203.69L1053.4,1199.94L1048.24,1203.69L1050.21,1197.62L1045.05,1193.87L1051.43,1193.87L1053.4,1187.8Z" style="fill:white;"/>
    </g>
    <g transform="matrix(0.555963,-0.501498,0.503367,0.504094,-1010.31,92.5267)">
        <path d="M1053.4,1187.8L1055.38,1193.87L1061.76,1193.87L1056.6,1197.62L1058.57,1203.69L1053.4,1199.94L1048.24,1203.69L1050.21,1197.62L1045.05,1193.87L1051.43,1193.87L1053.4,1187.8Z" style="fill:white;"/>
    </g>
    <g transform="matrix(0.433597,-0.599556,0.612591,0.38149,-1003.02,329.745)">
        <path d="M1053.4,1187.8L1055.38,1193.87L1061.76,1193.87L1056.6,1197.62L1058.57,1203.69L1053.4,1199.94L1048.24,1203.69L1050.21,1197.62L1045.05,1193.87L1051.43,1193.87L1053.4,1187.8Z" style="fill:white;"/>
    </g>
    <g transform="matrix(0.288383,-0.66884,0.693249,0.239344,-940.605,558.477)">
        <path d="M1053.4,1187.8L1055.38,1193.87L1061.76,1193.87L1056.6,1197.62L1058.57,1203.69L1053.4,1199.94L1048.24,1203.69L1050.21,1197.62L1045.05,1193.87L1051.43,1193.87L1053.4,1187.8Z" style="fill:white;"/>
    </g>
    <g transform="matrix(0.127709,-0.705208,0.739961,0.085104,-824.683,766.176)">
        <path d="M1053.4,1187.8L1055.38,1193.87L1061.76,1193.87L1056.6,1197.62L1058.57,1203.69L1053.4,1199.94L1048.24,1203.69L1050.21,1197.62L1045.05,1193.87L1051.43,1193.87L1053.4,1187.8Z" style="fill:white;"/>
    </g>
    <g transform="matrix(-0.0356343,-0.706415,0.750508,-0.0708621,-666.084,938.858)">
        <path d="M1053.4,1187.8L1055.38,1193.87L1061.76,1193.87L1056.6,1197.62L1058.57,1203.69L1053.4,1199.94L1048.24,1203.69L1050.21,1197.62L1045.05,1193.87L1051.43,1193.87L1053.4,1187.8Z" style="fill:white;"/>
    </g>
    <g transform="matrix(-0.200009,-0.672681,0.724793,-0.225693,-466.353,1073.87)">
        <path d="M1053.4,1187.8L1055.38,1193.87L1061.76,1193.87L1056.6,1197.62L1058.57,1203.69L1053.4,1199.94L1048.24,1203.69L1050.21,1197.62L1045.05,1193.87L1051.43,1193.87L1053.4,1187.8Z" style="fill:white;"/>
    </g>
    <g transform="matrix(-0.35517,-0.604897,0.663594,-0.369653,-237.046,1161.19)">
        <path d="M1053.4,1187.8L1055.38,1193.87L1061.76,1193.87L1056.6,1197.62L1058.57,1203.69L1053.4,1199.94L1048.24,1203.69L1050.21,1197.62L1045.05,1193.87L1051.43,1193.87L1053.4,1187.8Z" style="fill:white;"/>
    </g>
    <g transform="matrix(-0.491718,-0.50729,0.571632,-0.4936,6.5182,1194.97)">
        <path d="M1053.4,1187.8L1055.38,1193.87L1061.76,1193.87L1056.6,1197.62L1058.57,1203.69L1053.4,1199.94L1048.24,1203.69L1050.21,1197.62L1045.05,1193.87L1051.43,1193.87L1053.4,1187.8Z" style="fill:white;"/>
    </g>
    <g transform="matrix(-0.605076,-0.384709,0.453315,-0.592158,254.711,1174.43)">
        <path d="M1053.4,1187.8L1055.38,1193.87L1061.76,1193.87L1056.6,1197.62L1058.57,1203.69L1053.4,1199.94L1048.24,1203.69L1050.21,1197.62L1045.05,1193.87L1051.43,1193.87L1053.4,1187.8Z" style="fill:white;"/>
    </g>
    <g transform="matrix(-0.691439,-0.242149,0.31088,-0.661543,501.457,1100.74)">
        <path d="M1053.4,1187.8L1055.38,1193.87L1061.76,1193.87L1056.6,1197.62L1058.57,1203.69L1053.4,1199.94L1048.24,1203.69L1050.21,1197.62L1045.05,1193.87L1051.43,1193.87L1053.4,1187.8Z" style="fill:white;"/>
    </g>
    <g transform="matrix(-0.74505,-0.0874009,0.151662,-0.697188,732.673,977.014)">
        <path d="M1053.4,1187.8L1055.38,1193.87L1061.76,1193.87L1056.6,1197.62L1058.57,1203.69L1053.4,1199.94L1048.24,1203.69L1050.21,1197.62L1045.05,1193.87L1051.43,1193.87L1053.4,1187.8Z" style="fill:white;"/>
    </g>
    <g transform="matrix(-0.762506,0.068089,-0.0131604,-0.697436,932.222,813.459)">
        <path d="M1053.4,1187.8L1055.38,1193.87L1061.76,1193.87L1056.6,1197.62L1058.57,1203.69L1053.4,1199.94L1048.24,1203.69L1050.21,1197.62L1045.05,1193.87L1051.43,1193.87L1053.4,1187.8Z" style="fill:white;"/>
    </g>
    <g transform="matrix(-0.742558,0.220636,-0.180523,-0.66374,1095.8,615.682)">
        <path d="M1053.4,1187.8L1055.38,1193.87L1061.76,1193.87L1056.6,1197.62L1058.57,1203.69L1053.4,1199.94L1048.24,1203.69L1050.21,1197.62L1045.05,1193.87L1051.43,1193.87L1053.4,1187.8Z" style="fill:white;"/>
    </g>
    <g transform="matrix(-0.685273,0.362079,-0.340395,-0.597493,1212.25,393.839)">
        <path d="M1053.4,1187.8L1055.38,1193.87L1061.76,1193.87L1056.6,1197.62L1058.57,1203.69L1053.4,1199.94L1048.24,1203.69L1050.21,1197.62L1045.05,1193.87L1051.43,1193.87L1053.4,1187.8Z" style="fill:white;"/>
    </g>
    <g transform="matrix(-0.595176,0.483797,-0.48228,-0.502994,1274.44,162.154)">
        <path d="M1053.4,1187.8L1055.38,1193.87L1061.76,1193.87L1056.6,1197.62L1058.57,1203.69L1053.4,1199.94L1048.24,1203.69L1050.21,1197.62L1045.05,1193.87L1051.43,1193.87L1053.4,1187.8Z" style="fill:white;"/>
    </g>
    <g transform="matrix(-0.47576,0.581896,-0.601169,-0.38439,1280.79,-71.0918)">
        <path d="M1053.4,1187.8L1055.38,1193.87L1061.76,1193.87L1056.6,1197.62L1058.57,1203.69L1053.4,1199.94L1048.24,1203.69L1050.21,1197.62L1045.05,1193.87L1051.43,1193.87L1053.4,1187.8Z" style="fill:white;"/>
    </g>
    <g transform="matrix(-0.331676,0.652208,-0.691385,-0.246531,1229.84,-296.409)">
        <path d="M1053.4,1187.8L1055.38,1193.87L1061.76,1193.87L1056.6,1197.62L1058.57,1203.69L1053.4,1199.94L1048.24,1203.69L1050.21,1197.62L1045.05,1193.87L1051.43,1193.87L1053.4,1187.8Z" style="fill:white;"/>
    </g>
    <g transform="matrix(-0.170666,0.690195,-0.748146,-0.0956784,1124.28,-502.219)">
        <path d="M1053.4,1187.8L1055.38,1193.87L1061.76,1193.87L1056.6,1197.62L1058.57,1203.69L1053.4,1199.94L1048.24,1203.69L1050.21,1197.62L1045.05,1193.87L1051.43,1193.87L1053.4,1187.8Z" style="fill:white;"/>
    </g>
    <g transform="matrix(-0.0117928,0.694141,-0.768271,0.0502608,980.413,-665.994)">
        <path d="M1053.4,1187.8L1055.38,1193.87L1061.76,1193.87L1056.6,1197.62L1058.57,1203.69L1053.4,1199.94L1048.24,1203.69L1050.21,1197.62L1045.05,1193.87L1051.43,1193.87L1053.4,1187.8Z" style="fill:white;"/>
    </g>
    <g transform="matrix(0.847363,-0.259065,0.259065,0.847363,-1169.18,-670.191)">
        <path d="M1053.4,1187.8L1055.38,1193.87L1061.76,1193.87L1056.6,1197.62L1058.57,1203.69L1053.4,1199.94L1048.24,1203.69L1050.21,1197.62L1045.05,1193.87L1051.43,1193.87L1053.4,1187.8Z" style="fill:white;"/>
    </g>
    <g transform="matrix(0.847363,-0.259065,0.259065,0.847363,-1171.18,-581.079)">
        <path d="M1053.4,1187.8L1055.38,1193.87L1061.76,1193.87L1056.6,1197.62L1058.57,1203.69L1053.4,1199.94L1048.24,1203.69L1050.21,1197.62L1045.05,1193.87L1051.43,1193.87L1053.4,1187.8Z" style="fill:white;"/>
    </g>
    <g transform="matrix(0.847363,0.259065,-0.259065,0.847363,-376.435,-1215.99)">
        <path d="M1053.4,1187.8L1055.38,1193.87L1061.76,1193.87L1056.6,1197.62L1058.57,1203.69L1053.4,1199.94L1048.24,1203.69L1050.21,1197.62L1045.05,1193.87L1051.43,1193.87L1053.4,1187.8Z" style="fill:white;"/>
    </g>
    <g transform="matrix(0.847363,0.259065,-0.259065,0.847363,-373.34,-1126.88)">
        <path d="M1053.4,1187.8L1055.38,1193.87L1061.76,1193.87L1056.6,1197.62L1058.57,1203.69L1053.4,1199.94L1048.24,1203.69L1050.21,1197.62L1045.05,1193.87L1051.43,1193.87L1053.4,1187.8Z" style="fill:white;"/>
    </g>
    <g transform="matrix(0.0269349,0,0,0.0269349,59.9682,55.3713)">
        <path d="M1657.28,2541.52C1657.28,2541.52 1572.8,2151.78 1666.02,2256.7C1678.55,2270.81 1688.2,2287.24 1694.73,2304.95C1702.63,2326.37 1713.6,2360.82 1718.59,2397.99C1723.28,2432.92 1737.48,2465.88 1759.76,2493.18L1792.16,2532.89C1795.99,2537.59 1802.97,2538.12 1807.47,2534.06L1821.83,2521.12C1827.67,2515.84 1835.45,2513.24 1843.29,2513.94L1895.46,2518.55C1907.91,2519.65 1918.45,2528.21 1922.07,2540.17L1933.94,2579.31C1936.04,2586.24 1942.44,2590.98 1949.68,2590.98L1965.79,2590.98C1973.71,2590.98 1980.14,2584.56 1980.14,2576.63L1980.14,2564.9C1980.14,2551.99 1990.61,2541.52 2003.52,2541.52L2029.27,2541.52C2040.66,2541.52 2051.28,2547.31 2057.46,2556.88L2072.26,2579.79C2076.76,2586.77 2084.49,2590.98 2092.79,2590.98L2170.81,2590.98C2179.87,2590.98 2187.95,2585.29 2191.01,2576.77L2194.26,2567.7C2197.62,2558.34 2210.72,2557.93 2214.65,2567.07L2217.47,2573.63C2222,2584.16 2232.37,2590.98 2243.84,2590.98L2265.97,2590.98C2271.86,2590.98 2277.38,2588.11 2280.76,2583.29L2285.45,2576.62C2296.22,2561.28 2319.63,2563.7 2327.04,2580.91C2329.67,2587.02 2335.69,2590.98 2342.34,2590.98L2374.19,2590.98C2381.27,2590.98 2387.79,2587.13 2391.21,2580.94L2406.59,2553.09C2410.53,2545.95 2418.04,2541.52 2426.19,2541.52L2439.37,2541.52C2449.42,2541.52 2458.59,2547.21 2463.07,2556.2L2475.03,2580.22C2478.31,2586.81 2485.05,2590.98 2492.41,2590.98L2519.14,2590.98C2527.13,2590.98 2533.61,2584.51 2533.61,2576.52L2533.61,2543.21C2533.61,2533.5 2539.21,2524.67 2547.99,2520.53L2576.37,2507.14C2589.86,2500.78 2605.34,2500.16 2619.29,2505.43L2693.39,2533.43C2705.59,2538.04 2719.3,2532.76 2725.26,2521.17L2752.98,2467.24C2764.12,2445.56 2770.66,2421.82 2772.09,2397.49C2773.67,2370.78 2778.37,2333.04 2791.71,2302.55C2795.66,2293.54 2802.25,2285.88 2810.71,2280.86C2835.86,2265.94 2882.87,2270.03 2856.46,2541.52C2856.46,2541.52 2851.66,2601.35 2872.86,2656.15C2883.27,2683.07 2876.92,2713.63 2856.92,2734.43C2855.4,2736.01 2853.81,2737.6 2852.15,2739.21C2831.33,2759.31 2805.08,2772.83 2776.71,2778.53C2740.78,2785.74 2670.13,2810.74 2616.77,2897.48C2616.01,2898.72 2615.28,2899.98 2614.55,2901.25C2610.12,2909.01 2582.67,2952.1 2508.33,2974.34C2474.69,2984.4 2441.94,2997.17 2410.33,3012.44C2348.87,3042.13 2231.12,3074.19 2094.97,2984.99C2094.97,2984.99 1920.2,2866.05 1806.38,2860.98C1803.11,2860.83 1799.83,2860.83 1796.55,2860.89C1777.66,2861.26 1664.35,2859.98 1671.25,2775.61C1671.25,2775.61 1680.35,2668.59 1657.28,2541.52Z" style="fill:white;fill-rule:nonzero;"/>
    </g>
    <g transform="matrix(0.0269349,0,0,0.0269349,59.9682,55.3713)">
        <path d="M3011.14,1623.66C2969.44,1701.88 2891.74,1754.35 2803.8,1765.42C2525.38,1800.48 2420.14,1649.95 2385.58,1575.34C2374.7,1551.85 2377.73,1524.2 2393.59,1503.74C2513.08,1349.58 2678.83,1319.26 2783.09,1317.49C2862.68,1316.14 2939,1350.28 2990.22,1411.21C3054.66,1487.84 3043.16,1563.6 3011.14,1623.66ZM2429,1982.27C2418.71,2010.11 2403.16,2011.19 2379.42,2012.82C2351.57,2014.74 2331.53,1990.25 2317.21,1967.96C2291.26,1927.54 2268.81,1912.2 2250,1910.89C2231.19,1912.2 2208.74,1927.54 2182.79,1967.96C2168.47,1990.25 2148.43,2014.74 2120.58,2012.82C2096.84,2011.19 2081.29,2010.11 2071,1982.27C2065.59,1967.64 2073.24,1951.16 2081.17,1937.73L2210.93,1717.86C2215.95,1709.34 2225.1,1704.12 2234.99,1704.12L2265.01,1704.12C2274.9,1704.12 2284.05,1709.34 2289.07,1717.86L2418.83,1937.73C2426.76,1951.16 2434.41,1967.64 2429,1982.27ZM1696.2,1765.42C1608.26,1754.35 1530.56,1701.88 1488.86,1623.66C1456.84,1563.6 1445.34,1487.84 1509.78,1411.21C1561,1350.28 1637.32,1316.14 1716.91,1317.49C1822.27,1319.28 1990.44,1350.23 2110.2,1508.68C2123.26,1525.96 2126.01,1548.94 2117.36,1568.8C2086.06,1640.69 1983.02,1801.54 1696.2,1765.42ZM3311.97,771.354C3009.86,247.376 2322.72,224.396 2196.54,224.693C2181.8,224.727 2167.06,224.566 2152.32,224.276C1568,212.746 1246.95,650.393 1246.95,650.393C1084.41,851.257 1110.11,1131.45 1150.21,1308.48C1168.82,1390.64 1204.05,1468 1252.65,1536.8C1400.96,1746.75 1271.83,2009.33 1271.83,2009.33C1237.71,2071.3 1256.09,2129.55 1264.71,2150.18C1266.98,2155.63 1269.1,2161.15 1270.95,2166.77C1298.2,2249.2 1377.51,2245.83 1426.47,2234.82C1445.57,2230.52 1462.91,2220.81 1477.21,2207.43C1507.89,2178.74 1580.89,2189.52 1615.18,2196.62C1626.92,2199.05 1638.73,2201.21 1650.59,2202.98C1789.76,2223.76 1764.27,2318.57 1753.69,2346.15C1750.28,2355.05 1750.35,2364.99 1754.22,2373.7C1761.89,2390.94 1779.92,2395.04 1794.89,2395.16C1807.26,2395.25 1817.16,2384.86 1816.54,2372.51C1815.03,2342.78 1818.73,2323.01 1824.74,2309.93C1836.22,2284.95 1872.68,2287.73 1880.28,2314.16C1890.48,2349.61 1883.04,2385.51 1874.51,2410.25C1869.25,2425.51 1875.51,2442.29 1889.4,2450.52C1897.41,2455.26 1903.26,2460.18 1903.26,2460.18C1930.66,2485.67 1959.08,2494.02 1979.08,2496.37C1993.63,2498.08 2006.72,2487.43 2007.95,2472.84C2023.02,2294.21 2048.25,2403.57 2056.69,2447.73C2059.9,2464.57 2069.9,2479.48 2084.56,2488.39C2098.6,2496.92 2112.55,2497.59 2124.97,2494.62C2150.62,2488.49 2169.54,2466.72 2172.75,2440.55L2182.36,2362.02C2183.91,2349.36 2200.65,2345.89 2207.12,2356.88C2233.76,2402.25 2243.63,2437.62 2246.97,2461.11C2249.63,2479.79 2266.17,2493.31 2285.01,2492.28C2288.02,2492.11 2291.05,2492.29 2294.02,2492.82C2348.48,2502.41 2353.16,2463.97 2350.59,2438.45C2349.42,2426.74 2361.52,2418.15 2372.17,2423.15C2392.71,2432.79 2413.87,2451.95 2425.85,2463.82C2436.87,2474.74 2453.37,2478.38 2467.77,2472.63C2474.26,2470.04 2479.08,2466.1 2482.64,2461.89C2488.95,2454.41 2492.21,2444.81 2492.11,2435.03C2491.39,2357.78 2505.6,2323.72 2521.78,2309.84C2539.22,2294.87 2566.25,2307.34 2566.77,2330.32C2569.06,2431.98 2586.72,2443.28 2596.29,2441.77C2603.09,2440.7 2609.94,2439.97 2616.82,2440.23C2663.4,2441.96 2687.37,2412.18 2699.01,2388.55C2705.68,2375.02 2706.27,2359.34 2700.95,2345.23C2699.65,2341.79 2698.58,2338.26 2697.71,2334.71C2689.15,2299.86 2700.17,2263.11 2725.88,2238.07C2845.43,2121.57 2949.1,2166.18 2992.37,2194.69C3008.66,2205.43 3028.89,2208.33 3047.6,2202.84C3093.64,2189.34 3126.62,2171.36 3148.23,2156.6C3167.84,2143.2 3176,2118.29 3168.19,2095.86C3056.52,1775.19 3156.67,1582.47 3236.49,1489.22C3319.02,1392.8 3369.23,1272.78 3377.94,1146.17C3393.33,922.6 3311.97,771.354 3311.97,771.354Z" style="fill:white;fill-rule:nonzero;"/>
    </g>
    <g transform="matrix(0.0345706,0,0,0.0269349,44.1021,55.3713)">
        <path d="M3468.92,3072.52C3402.85,3041.13 3370.51,2965.44 3393.51,2896C3418.68,2820.01 3377.48,2737.99 3301.48,2712.82L3290.64,2709.23C3214.64,2684.05 3132.63,2725.26 3107.46,2801.25L3067.25,2922.64C3054.18,2962.1 3024.81,2994.04 2986.59,3010.37L1395.02,3690.31C1356.8,3706.63 1313.42,3705.77 1275.88,3687.94L1160.37,3633.07C1088.06,3598.72 1001.59,3629.5 967.237,3701.81L962.338,3712.13C927.987,3784.45 958.763,3870.91 1031.08,3905.26C1097.15,3936.65 1129.49,4012.34 1106.49,4081.78C1081.32,4157.78 1122.52,4239.79 1198.52,4264.97L1209.36,4268.56C1285.36,4293.73 1367.37,4252.53 1392.54,4176.53L1432.75,4055.14C1445.82,4015.69 1475.19,3983.74 1513.41,3967.41L3104.98,3287.48C3143.2,3271.15 3186.58,3272.01 3224.12,3289.84L3339.63,3344.71C3411.94,3379.06 3498.41,3348.28 3532.76,3275.97L3537.66,3265.65C3572.01,3193.34 3541.24,3106.87 3468.92,3072.52Z" style="fill:white;fill-rule:nonzero;"/>
    </g>
    <g transform="matrix(0.0345706,0,0,0.0269349,44.1021,55.3713)">
        <path d="M1031.08,3072.52C1097.15,3041.13 1129.49,2965.44 1106.49,2896C1081.32,2820.01 1122.52,2737.99 1198.52,2712.82L1209.36,2709.23C1285.36,2684.05 1367.37,2725.26 1392.54,2801.25L1432.75,2922.64C1445.82,2962.1 1475.19,2994.04 1513.41,3010.37L3104.98,3690.31C3143.2,3706.63 3186.58,3705.77 3224.12,3687.94L3339.63,3633.07C3411.94,3598.72 3498.41,3629.5 3532.76,3701.81L3537.66,3712.13C3572.01,3784.45 3541.24,3870.91 3468.92,3905.26C3402.85,3936.65 3370.51,4012.34 3393.51,4081.78C3418.68,4157.78 3377.48,4239.79 3301.48,4264.97L3290.64,4268.56C3214.64,4293.73 3132.63,4252.53 3107.46,4176.53L3067.25,4055.14C3054.18,4015.69 3024.81,3983.74 2986.59,3967.41L1395.02,3287.48C1356.8,3271.15 1313.42,3272.01 1275.88,3289.84L1160.37,3344.71C1088.06,3379.06 1001.59,3348.28 967.238,3275.97L962.338,3265.65C927.987,3193.34 958.763,3106.87 1031.08,3072.52Z" style="fill:white;fill-rule:nonzero;"/>
    </g>
</svg>
